<svg width="147" height="71" viewBox="0 0 147 71" fill="none" xmlns="http://www.w3.org/2000/svg">
<path d="M128.092 36.6201C128.064 31.958 130.177 28.4443 134.442 25.8535C132.057 22.4355 128.447 20.5557 123.689 20.1934C119.185 19.8379 114.256 22.8184 112.451 22.8184C110.544 22.8184 106.183 20.3164 102.751 20.3164C95.6689 20.4258 88.1426 25.9629 88.1426 37.2285C88.1426 40.5576 88.751 43.9961 89.9678 47.5371C91.5947 52.1992 97.46 63.6221 103.578 63.4375C106.777 63.3623 109.04 61.168 113.203 61.168C117.243 61.168 119.335 63.4375 122.903 63.4375C129.076 63.3486 134.381 52.9648 135.926 48.2891C127.647 44.3857 128.092 36.8594 128.092 36.6201ZM120.907 15.7705C124.373 11.6553 124.059 7.90918 123.956 6.5625C120.894 6.74023 117.353 8.64746 115.336 10.9922C113.114 13.5078 111.809 16.6182 112.089 20.125C115.397 20.3779 118.419 18.6758 120.907 15.7705Z" fill="#F8F8F8"/>
<path d="M18.4639 51.7022C18.4639 53.3018 19.7695 54.6074 21.376 54.6074H24.7051V62.8379C24.7051 64.9229 26.3799 66.625 28.4375 66.625C30.502 66.625 32.1699 64.9297 32.1699 62.8379V54.6006H37.9805V62.8311C37.9805 64.916 39.6553 66.6182 41.7129 66.6182C43.7773 66.6182 45.4453 64.9229 45.4453 62.8311V54.6006H48.7744C50.3809 54.6006 51.6865 53.2949 51.6865 51.6953V24.6797H18.4639V51.7022ZM42.875 10.6797L45.9443 6.23634C46.1221 5.97657 46.0811 5.62794 45.8418 5.45704C45.6025 5.29298 45.2607 5.37501 45.083 5.63478L41.8975 10.2559C39.7988 9.42872 37.4609 8.97071 35.0068 8.97071C32.5527 8.97071 30.2148 9.42872 28.1162 10.2559L24.9307 5.64161C24.7529 5.38185 24.4111 5.29298 24.1719 5.46388C23.9326 5.62794 23.8916 5.96974 24.0693 6.24317L27.1387 10.6865C22.2578 12.9561 18.8398 17.2559 18.4023 22.2803H51.625C51.1738 17.249 47.749 12.9492 42.875 10.6797ZM27.9932 17.6865C27.6295 17.6865 27.2739 17.5787 26.9715 17.3766C26.6691 17.1746 26.4335 16.8874 26.2943 16.5514C26.1551 16.2154 26.1187 15.8456 26.1896 15.4889C26.2606 15.1322 26.4357 14.8046 26.6929 14.5474C26.9501 14.2902 27.2777 14.1151 27.6344 14.0441C27.9911 13.9732 28.3609 14.0096 28.6969 14.1488C29.0329 14.288 29.3201 14.5236 29.5221 14.826C29.7242 15.1284 29.832 15.484 29.832 15.8477C29.8308 16.335 29.6366 16.802 29.292 17.1465C28.9475 17.4911 28.4805 17.6853 27.9932 17.6865ZM42.2393 17.6865C41.8756 17.6865 41.52 17.5787 41.2176 17.3766C40.9152 17.1746 40.6795 16.8874 40.5404 16.5514C40.4012 16.2154 40.3648 15.8456 40.4357 15.4889C40.5067 15.1322 40.6818 14.8046 40.939 14.5474C41.1962 14.2902 41.5238 14.1151 41.8805 14.0441C42.2372 13.9732 42.607 14.0096 42.943 14.1488C43.279 14.288 43.5662 14.5236 43.7682 14.826C43.9703 15.1284 44.0781 15.484 44.0781 15.8477C44.0769 16.335 43.8827 16.802 43.5381 17.1465C43.1936 17.4911 42.7266 17.6853 42.2393 17.6865ZM57.5107 24.5703C55.4463 24.5703 53.7783 26.2656 53.7783 28.3574V43.1504C53.7783 45.2354 55.4531 46.9375 57.5107 46.9375C59.5752 46.9375 61.2432 45.2422 61.2432 43.1504V28.3506C61.25 26.2588 59.582 24.5703 57.5107 24.5703ZM12.4893 24.5703C10.4248 24.5703 8.75684 26.2656 8.75684 28.3574V43.1504C8.75684 45.2354 10.4316 46.9375 12.4893 46.9375C14.5537 46.9375 16.2217 45.2422 16.2217 43.1504V28.3506C16.2217 26.2588 14.5469 24.5703 12.4893 24.5703Z" fill="#F8F8F8"/>
</svg>
